<?xml version="1.0" encoding="UTF-8"?>
<svg id="Capa_1" data-name="Capa 1" xmlns="http://www.w3.org/2000/svg" viewBox="0 0 1080 1080">
  <defs>
    <style>
      .cls-1 {
        fill: #405f6d;
      }

      .cls-1, .cls-2 {
        stroke-width: 0px;
      }

      .cls-2 {
        fill: #bf903a;
      }
    </style>
  </defs>
  <g>
    <circle class="cls-2" cx="606.28" cy="345.61" r="51.65"/>
    <path class="cls-2" d="M313.13,525.64c-22.16-15.54-50.17-19.74-73.49-4.81-7.71,4.7-14.54,10.7-20.83,17.41,2.94-9.21,8.86-17.36,16.2-23.7,23.21-20.71,61.86-15.53,78.12,11.11h0Z"/>
    <path class="cls-2" d="M306.16,533.94c-22.52-3.75-44.62,2.74-57.6,22-4.15,5.99-7.23,12.86-9.65,20.6-7.06-37.12,36.66-65.07,67.25-42.6h0Z"/>
    <path class="cls-2" d="M316.08,542.79c-17.08,3.34-31.52,14.39-35.06,31.78-1.23,5.47-1.42,11.27-.84,17.53-16.66-24.34,7.52-57.75,35.9-49.3h0Z"/>
    <path class="cls-2" d="M323.31,538.5c4.57-14.42,24.75-18.37,33.76-6.16-12.05-6.39-24.54-3.6-33.76,6.16h0Z"/>
    <path class="cls-2" d="M319.56,524.3c-11.58-22.49,12.13-48.06,35.37-38.32-5.36.27-10.31,1.21-14.81,3.08-14.33,5.52-21.43,20.25-20.56,35.24h0Z"/>
    <path class="cls-2" d="M757.48,576.78c18.29-1.41,32.97,17.86,24.92,34.83.21-4.14-.07-8.11-.99-11.86-2.7-11.77-12.72-19.5-23.93-22.97h0Z"/>
    <path class="cls-2" d="M761.37,571.69c21.86-15.31,52.51,2.8,49.57,29.34-1.73-5.49-4.08-10.49-7.15-14.82-9.35-13.75-26.58-18.11-42.42-14.52h0Z"/>
    <path class="cls-2" d="M758.96,564.32c13.99-21.74,46.99-21.23,61.66-.37,1.94,2.74,3.66,5.63,4.66,8.81-4.88-4.4-9.87-8.14-15.17-10.98-16.26-9.27-35.3-6.82-51.15,2.54h0Z"/>
    <path class="cls-2" d="M729.48,536.46c14.57-3.78,29.54,10.27,24.78,25.05-.57-3.38-1.42-6.49-2.71-9.33-4.06-8.99-12.27-13.52-22.07-15.72h0Z"/>
    <path class="cls-2" d="M727.34,568.88c6.08-7.23,19.62-5.35,23.45,3.22-7.54-3.72-15.18-4.75-23.45-3.22h0Z"/>
  </g>
  <rect class="cls-1" x="687.16" y="393.96" width="9.94" height="67.07" transform="translate(-99.56 614.63) rotate(-45)"/>
  <rect class="cls-1" x="583.78" y="421.82" width="95.93" height="9.94" transform="translate(-126.59 348.22) rotate(-28.13)"/>
  <rect class="cls-1" x="709.45" y="447.72" width="9.94" height="218.44"/>
  <rect class="cls-1" x="587.29" y="445.31" width="9.94" height="220.85"/>
  <rect class="cls-1" x="563.58" y="443" width="9.94" height="223.17"/>
  <rect class="cls-1" x="545.09" y="440.99" width="9.94" height="225.18"/>
  <rect class="cls-1" x="526.92" y="421.87" width="9.94" height="244.29"/>
  <rect class="cls-1" x="505.59" y="419.26" width="9.94" height="246.9"/>
  <path class="cls-1" d="M384.99,443.91h9.94c-.06-50.32-.12-100.63-.19-150.95-3.14-1.46-6.28-2.92-9.42-4.39-.11,51.78-.22,103.55-.33,155.33Z"/>
  <path class="cls-1" d="M375.1,666.17h-9.94v-214.4c35.03-20.87,70.06-41.73,105.08-62.6-.02,3.94-.03,7.88-.05,11.82l-95.1,56.43v208.74Z"/>
  <path class="cls-1" d="M506.65,361.1c-32.91-15.03-65.83-30.06-98.74-45.09,0-5.58,0-11.15,0-16.73,32.83,15.44,65.66,30.88,98.48,46.32.09,5.16.17,10.33.26,15.49Z"/>
  <rect class="cls-1" x="667.28" y="409.14" width="9.94" height="257.03"/>
  <rect class="cls-1" x="589.98" y="609.78" width="84.55" height="9.94" transform="translate(-165.15 238.17) rotate(-18.92)"/>
  <rect class="cls-1" x="687.27" y="585.64" width="9.94" height="41.37" transform="translate(-71.02 1120.38) rotate(-75.17)"/>
  <path class="cls-1" d="M573.36,473.65c-22.58-17.66-45.17-35.31-67.75-52.97.26-25.02.52-50.04.78-75.06,22.46,25.71,44.92,51.41,67.38,77.12-.14,16.97-.27,33.94-.41,50.92Z"/>
  <path class="cls-1" d="M384.17,473.89v-9.31c27.7-16.7,55.4-33.41,83.1-50.11v11.66c-27.7,15.92-55.4,31.84-83.1,47.76Z"/>
  <path class="cls-1" d="M384.17,493.31v-9.31c27.7-16.7,55.4-33.41,83.1-50.11v11.66c-27.7,15.92-55.4,31.84-83.1,47.76Z"/>
  <path class="cls-1" d="M384.17,512.73v-9.31c27.7-16.7,55.4-33.41,83.1-50.11v11.66c-27.7,15.92-55.4,31.84-83.1,47.76Z"/>
  <path class="cls-1" d="M384.17,532.16v-9.31c27.7-16.7,55.4-33.41,83.1-50.11v11.66c-27.7,15.92-55.4,31.84-83.1,47.76Z"/>
  <path class="cls-1" d="M384.17,551.58v-9.31c27.7-16.7,55.4-33.41,83.1-50.11v11.66c-27.7,15.92-55.4,31.84-83.1,47.76Z"/>
  <path class="cls-1" d="M384.17,571v-9.31c27.7-16.7,55.4-33.41,83.1-50.11v11.66c-27.7,15.92-55.4,31.84-83.1,47.76Z"/>
  <path class="cls-1" d="M384.17,590.42v-9.31c27.7-16.7,55.4-33.41,83.1-50.11v11.66c-27.7,15.92-55.4,31.84-83.1,47.76Z"/>
  <path class="cls-1" d="M384.17,609.85v-9.31c27.7-16.7,55.4-33.41,83.1-50.11v11.66c-27.7,15.92-55.4,31.84-83.1,47.76Z"/>
  <path class="cls-1" d="M384.17,629.27v-9.31c27.7-16.7,55.4-33.41,83.1-50.11v11.66c-27.7,15.92-55.4,31.84-83.1,47.76Z"/>
  <path class="cls-1" d="M384,665.61c.06-8.06.11-16.12.17-24.18,27.7-16.7,55.4-33.41,83.1-50.11.07,24.59.13,49.17.2,73.76-27.82.18-55.64.36-83.47.54Z"/>
  <path class="cls-1" d="M489.58,664.69h-9.69c-.41-93.89-.82-187.79-1.23-281.68,3.53-2.19,7.06-4.38,10.6-6.56.11,96.08.21,192.16.32,288.24Z"/>
  <rect class="cls-1" x="243.26" y="654.49" width="585.2" height="13.47" rx="2.94" ry="2.94"/>
  <path class="cls-1" d="M326.25,550.9c19.9,21.24,35.21,47.52,40.36,76.54,1.98,9.76,3.01,19.77,3.13,29.83l-21.84-1.2c2.45-17.5,1.06-35.32-3.25-52.54-2.12-8.7-4.79-17.4-8.38-25.83-3.68-8.37-8.09-16.51-13.21-24.27l3.19-2.53h0Z"/>
  <path class="cls-1" d="M751.17,585.53c-7.46,11.47-13.45,23.79-17.17,36.63-3.78,12.72-5.13,25.9-4.23,39.06,0,0-13.85.19-13.85.19,1.1-28.79,13.66-56.59,32.06-78.24,0,0,3.19,2.36,3.19,2.36h0Z"/>
  <g>
    <path class="cls-1" d="M176.67,696.9h13.91v35.6h14.97v-35.6h13.91v90.18h-13.91v-41.79h-14.97v41.79h-13.91v-90.18Z"/>
    <path class="cls-1" d="M295.56,720.83v42.11c0,17.28-7.33,25.45-22.61,25.45s-21.25-8.38-21.25-25.21v-42.45c0-17.27,8.69-25.15,22.14-25.15s21.73,7.9,21.73,25.25ZM265.86,719.47v45.36c0,7.49,2.7,11.01,7.72,11.01,5.4,0,7.82-3.28,7.82-11.21v-45.26c0-7.16-2.2-11.12-7.84-11.12-5.01,0-7.7,3.58-7.7,11.22Z"/>
    <path class="cls-1" d="M336.26,709.81h-14.48v-12.91h42.95v12.91h-14.56v77.27h-13.91v-77.27Z"/>
    <path class="cls-1" d="M426.41,745.88h-19.82v28.4h22.85l-1.76,12.79h-34.99v-90.18h34.83v12.91h-20.92v23.29h19.82v12.79Z"/>
    <path class="cls-1" d="M458.68,696.9h13.91v77.74h22.68l-1.18,12.43h-35.4v-90.18Z"/>
    <path class="cls-1" d="M562.76,696.9h18.51c15.61,0,21.61,7.31,21.61,20.53v3.31c0,12.79-4.43,16.49-8.37,18.12,4.02,1.6,10.04,4.97,10.04,18.09v6.84c0,15.25-6.36,23.28-22.05,23.28h-19.74v-90.18ZM579.71,733.62c7.78,0,10.1-2.4,10.1-11.34v-3.52c0-7.48-2.66-10.37-9.31-10.37h-4.3v25.24h3.51ZM576.2,775.71h4.64c8.03,0,10.03-3.55,10.03-12.28v-6c0-8.8-2.23-12.57-11.09-12.57h-3.58v30.85Z"/>
    <path class="cls-1" d="M669.55,745.88h-19.82v28.4h22.85l-1.76,12.79h-34.99v-90.18h34.83v12.91h-20.92v23.29h19.82v12.79Z"/>
    <path class="cls-1" d="M713.96,762.95l-3.16,24.12h-14.15l14.53-90.18h19.65l15.08,90.18h-14.53l-3.55-24.12h-13.87ZM726.18,750.16c-2.06-15.32-4.03-29.85-5.06-40.05h-.51c-.39,7.43-3.1,26.74-4.9,40.05h10.47Z"/>
    <path class="cls-1" d="M814.22,760.11v3.52c0,10.31-1.72,24.76-20.79,24.76-16.7,0-20.24-10.44-20.24-24.2v-45.47c0-13.92,6.31-23.14,20.48-23.14,16.91,0,20.14,11.21,20.14,23.71v4.04h-13.94v-5.67c0-5.99-1.4-9.4-6.24-9.4s-6.28,3.28-6.28,9.45v47.68c0,5.88,1.17,10.46,6.45,10.46s6.35-3.97,6.35-10.68v-5.04h14.06Z"/>
    <path class="cls-1" d="M844.37,696.9h13.91v35.6h14.97v-35.6h13.91v90.18h-13.91v-41.79h-14.97v41.79h-13.91v-90.18Z"/>
  </g>
  <rect class="cls-1" x="592.26" y="647.32" width="126.57" height="11.73"/>
  <rect class="cls-1" x="505.59" y="647.32" width="65.74" height="11.73"/>
  <path class="cls-1" d="M606.18,515.26c.03-19.37.06-38.74.1-58.11,18.3-10.61,36.61-21.21,54.91-31.82-18.34,29.98-36.67,59.96-55.01,89.93Z"/>
  <path class="cls-1" d="M705.08,469.95c0-5.51,0-11.02.01-16.54-5.18-5.27-10.36-10.53-15.54-15.8,5.18,10.78,10.36,21.56,15.53,32.34Z"/>
</svg>